<svg xmlns="http://www.w3.org/2000/svg" viewBox="0 0 576 512"><!--!Font Awesome Free 6.5.2 by @fontawesome - https://fontawesome.com License - https://fontawesome.com/license/free Copyright 2024 Fonticons, Inc.-->
<defs>
    <linearGradient id="grad1" x1="0%" y1="0%" x2="100%" y2="100%">
      <stop offset="0%" style="stop-color:#AB0AE0; stop-opacity:1" />
      <stop offset="25%" style="stop-color:#8500b5; stop-opacity:1" />
      <stop offset="50%" style="stop-color:#8d00d4; stop-opacity:1" />
      <stop offset="75%" style="stop-color:#6D0A90; stop-opacity:1" />
      <stop offset="100%" style="stop-color:#AB0AE0; stop-opacity:1" />
    </linearGradient>
  </defs>
  <path fill="url(#grad1)" d="M384 160c-17.7 0-32-14.3-32-32s14.3-32 32-32H544c17.7 0 32 14.3 32 32V288c0 17.7-14.3 32-32 32s-32-14.3-32-32V205.3L342.6 374.6c-12.5 12.5-32.8 12.5-45.3 0L192 269.3 54.6 406.6c-12.5 12.5-32.8 12.5-45.3 0s-12.5-32.8 0-45.3l160-160c12.5-12.5 32.8-12.5 45.3 0L320 306.7 466.7 160H384z"/></svg>