<?xml version="1.0" encoding="iso-8859-1"?>
<!-- Uploaded to: SVG Repo, www.svgrepo.com, Generator: SVG Repo Mixer Tools -->
<svg version="1.1" id="Layer_1" xmlns="http://www.w3.org/2000/svg" xmlns:xlink="http://www.w3.org/1999/xlink" 
	 viewBox="0 0 511.449 511.449" xml:space="preserve">
<g>
	<rect x="476.1" y="16.57" style="fill:#C2E95D;" width="18.779" height="18.779"/>
	<rect x="476.1" y="476.1" style="fill:#C2E95D;" width="18.779" height="18.779"/>
	<rect x="16.571" y="476.1" style="fill:#C2E95D;" width="18.779" height="18.779"/>
	<path style="fill:#C2E95D;" d="M324.444,198.725c3.226-3.237,3.226-8.484,0-11.709c-3.237-3.237-8.484-3.237-11.72,0
		l-12.503,12.493c-3.226,3.237-3.226,8.484,0,11.72c1.624,1.613,3.745,2.419,5.866,2.419c2.121,0,4.242-0.806,5.855-2.419
		L324.444,198.725z M187.005,187.016c-3.226,3.226-3.226,8.473,0,11.709l12.505,12.505c1.613,1.613,3.734,2.419,5.855,2.419
		c2.121,0,4.242-0.806,5.865-2.419c3.226-3.237,3.226-8.484,0-11.72l-12.503-12.493
		C195.489,183.779,190.242,183.779,187.005,187.016z M140.29,308.747c0-80.661,90.857-189.423,115.435-217.36
		c24.578,27.936,115.435,136.699,115.435,217.36c0,15.211-2.96,29.748-8.34,43.059c-0.398-0.84-0.928-1.635-1.624-2.331
		l-12.495-12.493c-3.237-3.237-8.484-3.237-11.72,0c-3.237,3.237-3.237,8.484,0,11.72l12.493,12.493
		c1.624,1.613,3.745,2.43,5.866,2.43c0.696,0,1.381-0.099,2.066-0.276c-19.519,36.188-57.773,60.832-101.682,60.832
		s-82.163-24.644-101.682-60.832c0.685,0.177,1.37,0.276,2.066,0.276c2.121,0,4.242-0.817,5.866-2.43l12.495-12.493
		c3.237-3.237,3.237-8.484,0-11.72c-3.238-3.237-8.485-3.237-11.72,0l-12.495,12.493c-0.696,0.696-1.225,1.491-1.624,2.331
		C143.251,338.495,140.29,323.958,140.29,308.747z M323.704,323.704c3.237-3.237,3.237-8.484,0-11.72l-12.493-12.493
		c-3.238-3.237-8.485-3.237-11.72,0c-3.237,3.237-3.237,8.484,0,11.72l12.493,12.493c1.625,1.613,3.746,2.43,5.867,2.43
		C319.96,326.134,322.081,325.317,323.704,323.704z M286.942,236.216c3.238-3.237,3.238-8.473,0-11.709
		c-3.226-3.237-8.473-3.237-11.709,0l-12.505,12.493c-3.237,3.237-3.237,8.484,0,11.72c1.624,1.613,3.746,2.419,5.867,2.419
		c2.121,0,4.242-0.806,5.855-2.419L286.942,236.216z M286.213,286.212c3.238-3.237,3.238-8.484,0-11.72l-12.503-12.493
		c-3.226-3.237-8.473-3.237-11.71,0c-3.237,3.237-3.237,8.473,0,11.709l12.495,12.504c1.624,1.613,3.734,2.419,5.855,2.419
		C282.468,288.632,284.589,287.825,286.213,286.212z M249.451,273.708c3.237-3.237,3.237-8.473,0-11.709
		c-3.238-3.237-8.485-3.237-11.71,0l-12.503,12.493c-3.238,3.237-3.238,8.484,0,11.72c1.624,1.613,3.745,2.419,5.866,2.419
		c2.11,0,4.231-0.806,5.855-2.419L249.451,273.708z M248.722,248.721c3.237-3.237,3.237-8.484,0-11.72l-12.505-12.493
		c-3.237-3.237-8.473-3.237-11.709,0c-3.238,3.237-3.238,8.473,0,11.709l12.493,12.505c1.613,1.613,3.734,2.419,5.855,2.419
		C244.977,251.14,247.098,250.334,248.722,248.721z M211.959,311.21c3.237-3.237,3.237-8.484,0-11.72
		c-3.237-3.237-8.484-3.237-11.72,0l-12.492,12.493c-3.237,3.237-3.237,8.484,0,11.72c1.624,1.613,3.745,2.43,5.855,2.43
		c2.121,0,4.242-0.817,5.867-2.43L211.959,311.21z"/>
	<rect x="16.571" y="16.57" style="fill:#C2E95D;" width="18.779" height="18.779"/>
</g>
<g>
	<path style="fill:#535757;" d="M511.449,467.815v35.348c0,4.573-3.712,8.285-8.285,8.285h-35.348c-4.573,0-8.285-3.712-8.285-8.285
		v-9.389h-27.064c-4.573,0-8.285-3.712-8.285-8.285c0-4.573,3.712-8.285,8.285-8.285h27.064v-5.954l-10.074-10.074
		c-3.237-3.237-3.237-8.484,0-11.72c3.237-3.226,8.484-3.237,11.72,0l10.074,10.074h5.954v-27.064c0-4.573,3.712-8.285,8.285-8.285
		c4.573,0,8.285,3.712,8.285,8.285v27.064h9.389C507.737,459.53,511.449,463.242,511.449,467.815z M494.879,494.879V476.1H476.1
		v18.779H494.879z"/>
	<path style="fill:#535757;" d="M511.449,8.285v35.348c0,4.573-3.712,8.285-8.285,8.285h-9.389v27.064
		c0,4.573-3.712,8.285-8.285,8.285c-4.573,0-8.285-3.712-8.285-8.285V51.919h-5.954l-9.334,9.334
		c-1.624,1.624-3.746,2.43-5.867,2.43c-2.121,0-4.242-0.806-5.855-2.43c-3.237-3.237-3.237-8.484,0-11.72l9.334-9.334v-5.954
		h-27.064c-4.573,0-8.285-3.712-8.285-8.285s3.712-8.285,8.285-8.285h27.064V8.285c0-4.573,3.712-8.285,8.285-8.285h35.348
		C507.737,0.001,511.449,3.712,511.449,8.285z M494.879,35.349V16.57H476.1v18.779H494.879z"/>
	<path style="fill:#535757;" d="M493.775,379.444v17.674c0,4.573-3.712,8.285-8.285,8.285c-4.573,0-8.285-3.712-8.285-8.285v-17.674
		c0-4.573,3.712-8.285,8.285-8.285C490.063,371.159,493.775,374.871,493.775,379.444z"/>
	<path style="fill:#535757;" d="M493.775,326.421v17.674c0,4.573-3.712,8.285-8.285,8.285c-4.573,0-8.285-3.712-8.285-8.285v-17.674
		c0-4.573,3.712-8.285,8.285-8.285C490.063,318.136,493.775,321.848,493.775,326.421z"/>
	<path style="fill:#535757;" d="M493.775,273.399v17.674c0,4.573-3.712,8.285-8.285,8.285c-4.573,0-8.285-3.712-8.285-8.285v-17.674
		c0-4.573,3.712-8.285,8.285-8.285C490.063,265.114,493.775,268.825,493.775,273.399z"/>
	<path style="fill:#535757;" d="M493.775,220.376v17.674c0,4.573-3.712,8.285-8.285,8.285c-4.573,0-8.285-3.712-8.285-8.285v-17.674
		c0-4.573,3.712-8.285,8.285-8.285C490.063,212.091,493.775,215.803,493.775,220.376z"/>
	<path style="fill:#535757;" d="M493.775,167.353v17.674c0,4.573-3.712,8.285-8.285,8.285c-4.573,0-8.285-3.712-8.285-8.285v-17.674
		c0-4.573,3.712-8.285,8.285-8.285C490.063,159.069,493.775,162.78,493.775,167.353z"/>
	<path style="fill:#535757;" d="M493.775,114.331v17.674c0,4.573-3.712,8.285-8.285,8.285c-4.573,0-8.285-3.712-8.285-8.285v-17.674
		c0-4.573,3.712-8.285,8.285-8.285C490.063,106.046,493.775,109.757,493.775,114.331z"/>
	<path style="fill:#535757;" d="M436.919,74.531c3.237,3.237,3.237,8.484,0,11.72l-12.505,12.493
		c-1.613,1.624-3.734,2.43-5.855,2.43c-2.121,0-4.242-0.806-5.855-2.43c-3.238-3.237-3.238-8.484,0-11.709l12.492-12.505
		C428.435,71.294,433.682,71.294,436.919,74.531z"/>
	<path style="fill:#535757;" d="M436.179,424.469c3.237,3.237,3.237,8.473,0,11.709c-1.613,1.624-3.734,2.43-5.856,2.43
		c-2.121,0-4.242-0.806-5.866-2.43l-12.493-12.493c-3.238-3.237-3.238-8.484,0-11.72c3.237-3.237,8.484-3.237,11.719,0
		L436.179,424.469z"/>
	<path style="fill:#535757;" d="M397.119,17.675c4.573,0,8.285,3.712,8.285,8.285s-3.712,8.285-8.285,8.285h-17.674
		c-4.573,0-8.285-3.712-8.285-8.285s3.712-8.285,8.285-8.285H397.119z"/>
	<path style="fill:#535757;" d="M397.119,477.204c4.573,0,8.285,3.712,8.285,8.285c0,4.573-3.712,8.285-8.285,8.285h-17.674
		c-4.573,0-8.285-3.712-8.285-8.285c0-4.573,3.712-8.285,8.285-8.285H397.119z"/>
	<path style="fill:#535757;" d="M399.427,112.022c3.237,3.237,3.237,8.484,0,11.72l-12.505,12.493
		c-1.613,1.624-3.734,2.43-5.855,2.43s-4.242-0.806-5.855-2.43c-3.237-3.237-3.237-8.473,0-11.709l12.495-12.505
		C390.944,108.785,396.191,108.796,399.427,112.022z"/>
	<path style="fill:#535757;" d="M398.687,386.966c3.237,3.237,3.237,8.484,0,11.72c-1.613,1.624-3.734,2.43-5.855,2.43
		c-2.121,0-4.242-0.806-5.855-2.43l-12.505-12.493c-3.237-3.237-3.237-8.484,0-11.72c3.237-3.237,8.484-3.237,11.72,0
		L398.687,386.966z"/>
	<path style="fill:#535757;" d="M338.683,174.544c32.555,52.183,49.046,97.241,49.046,134.203
		c0,72.785-59.22,132.004-132.004,132.004s-132.004-59.22-132.004-132.004c0-36.961,16.492-82.019,49.046-134.203
		c-1.458,1.072-3.17,1.613-4.895,1.613c-2.121,0-4.242-0.806-5.855-2.43l-12.505-12.493c-3.237-3.237-3.237-8.484,0-11.72
		c3.238-3.237,8.485-3.237,11.72,0l12.492,12.505c2.01,1.999,2.774,4.783,2.287,7.379c3.502-5.479,7.169-11.024,11.013-16.658
		c30.93-45.29,61.364-78.043,62.644-79.412c1.57-1.679,3.756-2.629,6.053-2.629s4.485,0.95,6.053,2.629
		c1.28,1.37,31.714,34.122,62.644,79.412c3.843,5.634,7.512,11.179,11.013,16.658c-0.486-2.596,0.276-5.38,2.287-7.379
		l12.493-12.505c3.237-3.226,8.484-3.237,11.72,0c3.237,3.237,3.237,8.484,0,11.72l-12.505,12.493
		c-1.613,1.624-3.734,2.43-5.855,2.43C341.854,176.157,340.141,175.616,338.683,174.544z M362.82,351.806
		c5.38-13.311,8.34-27.848,8.34-43.059c0-80.661-90.857-189.423-115.435-217.36c-24.578,27.936-115.435,136.699-115.435,217.36
		c0,15.211,2.96,29.748,8.34,43.059c0.398-0.84,0.928-1.635,1.624-2.331l12.495-12.493c3.237-3.237,8.484-3.237,11.72,0
		c3.237,3.237,3.237,8.484,0,11.72l-12.495,12.493c-1.624,1.613-3.745,2.43-5.866,2.43c-0.696,0-1.381-0.099-2.066-0.276
		c19.519,36.188,57.773,60.832,101.682,60.832s82.163-24.644,101.682-60.832c-0.685,0.177-1.37,0.276-2.066,0.276
		c-2.121,0-4.242-0.817-5.866-2.43l-12.493-12.493c-3.237-3.237-3.237-8.484,0-11.72c3.238-3.237,8.485-3.237,11.72,0l12.495,12.493
		C361.892,350.171,362.422,350.966,362.82,351.806z"/>
	<path style="fill:#535757;" d="M344.096,17.675c4.573,0,8.285,3.712,8.285,8.285s-3.712,8.285-8.285,8.285h-17.674
		c-4.573,0-8.285-3.712-8.285-8.285s3.712-8.285,8.285-8.285H344.096z"/>
	<path style="fill:#535757;" d="M344.096,477.204c4.573,0,8.285,3.712,8.285,8.285c0,4.573-3.712,8.285-8.285,8.285h-17.674
		c-4.573,0-8.285-3.712-8.285-8.285c0-4.573,3.712-8.285,8.285-8.285H344.096z"/>
	<path style="fill:#535757;" d="M324.444,187.016c3.226,3.226,3.226,8.473,0,11.709L311.94,211.23
		c-1.613,1.613-3.734,2.419-5.855,2.419s-4.242-0.806-5.866-2.419c-3.226-3.237-3.226-8.484,0-11.72l12.503-12.493
		C315.961,183.779,321.208,183.779,324.444,187.016z"/>
	<path style="fill:#535757;" d="M323.704,311.984c3.237,3.237,3.237,8.484,0,11.72c-1.624,1.613-3.745,2.43-5.855,2.43
		c-2.121,0-4.242-0.817-5.867-2.43L299.49,311.21c-3.237-3.237-3.237-8.484,0-11.72c3.237-3.237,8.484-3.237,11.72,0
		L323.704,311.984z"/>
	<path style="fill:#535757;" d="M291.073,17.675c4.573,0,8.285,3.712,8.285,8.285s-3.712,8.285-8.285,8.285h-17.674
		c-4.573,0-8.285-3.712-8.285-8.285s3.712-8.285,8.285-8.285H291.073z"/>
	<path style="fill:#535757;" d="M291.073,477.204c4.573,0,8.285,3.712,8.285,8.285c0,4.573-3.712,8.285-8.285,8.285h-17.674
		c-4.573,0-8.285-3.712-8.285-8.285c0-4.573,3.712-8.285,8.285-8.285H291.073z"/>
	<path style="fill:#535757;" d="M286.942,224.507c3.238,3.237,3.238,8.473,0,11.709l-12.493,12.505
		c-1.613,1.613-3.734,2.419-5.855,2.419c-2.121,0-4.243-0.806-5.867-2.419c-3.237-3.237-3.237-8.484,0-11.72l12.505-12.493
		C278.469,221.271,283.716,221.271,286.942,224.507z"/>
	<path style="fill:#535757;" d="M286.213,274.492c3.238,3.237,3.238,8.484,0,11.72c-1.624,1.613-3.745,2.419-5.866,2.419
		c-2.121,0-4.231-0.806-5.855-2.419l-12.495-12.505c-3.237-3.237-3.237-8.473,0-11.709c3.238-3.237,8.485-3.237,11.71,0
		L286.213,274.492z"/>
	<path style="fill:#535757;" d="M249.451,261.999c3.237,3.237,3.237,8.473,0,11.709l-12.495,12.505
		c-1.624,1.613-3.745,2.419-5.855,2.419c-2.121,0-4.242-0.806-5.866-2.419c-3.238-3.237-3.238-8.484,0-11.72l12.503-12.493
		C240.967,258.762,246.214,258.762,249.451,261.999z"/>
	<path style="fill:#535757;" d="M248.722,237.001c3.237,3.237,3.237,8.484,0,11.72c-1.624,1.613-3.746,2.419-5.867,2.419
		c-2.121,0-4.242-0.806-5.855-2.419l-12.493-12.505c-3.238-3.237-3.238-8.473,0-11.709c3.237-3.237,8.473-3.237,11.709,0
		L248.722,237.001z"/>
	<path style="fill:#535757;" d="M238.051,17.675c4.573,0,8.285,3.712,8.285,8.285s-3.712,8.285-8.285,8.285h-17.674
		c-4.573,0-8.285-3.712-8.285-8.285s3.712-8.285,8.285-8.285H238.051z"/>
	<path style="fill:#535757;" d="M238.051,477.204c4.573,0,8.285,3.712,8.285,8.285c0,4.573-3.712,8.285-8.285,8.285h-17.674
		c-4.573,0-8.285-3.712-8.285-8.285c0-4.573,3.712-8.285,8.285-8.285H238.051z"/>
	<path style="fill:#535757;" d="M211.959,299.49c3.237,3.237,3.237,8.484,0,11.72l-12.493,12.493
		c-1.625,1.613-3.746,2.43-5.867,2.43c-2.11,0-4.231-0.817-5.855-2.43c-3.237-3.237-3.237-8.484,0-11.72l12.492-12.493
		C203.476,296.254,208.723,296.254,211.959,299.49z"/>
	<path style="fill:#535757;" d="M211.23,199.509c3.226,3.237,3.226,8.484,0,11.72c-1.624,1.613-3.745,2.419-5.865,2.419
		c-2.121,0-4.242-0.806-5.855-2.419l-12.505-12.505c-3.226-3.237-3.226-8.484,0-11.709c3.237-3.237,8.484-3.237,11.72,0
		L211.23,199.509z"/>
	<path style="fill:#535757;" d="M185.028,17.675c4.573,0,8.285,3.712,8.285,8.285s-3.712,8.285-8.285,8.285h-17.674
		c-4.573,0-8.285-3.712-8.285-8.285s3.712-8.285,8.285-8.285H185.028z"/>
	<path style="fill:#535757;" d="M185.028,477.204c4.573,0,8.285,3.712,8.285,8.285c0,4.573-3.712,8.285-8.285,8.285h-17.674
		c-4.573,0-8.285-3.712-8.285-8.285c0-4.573,3.712-8.285,8.285-8.285H185.028z"/>
	<path style="fill:#535757;" d="M132.005,17.675c4.573,0,8.285,3.712,8.285,8.285s-3.712,8.285-8.285,8.285h-17.674
		c-4.573,0-8.285-3.712-8.285-8.285s3.712-8.285,8.285-8.285H132.005z"/>
	<path style="fill:#535757;" d="M132.005,477.204c4.573,0,8.285,3.712,8.285,8.285c0,4.573-3.712,8.285-8.285,8.285h-17.674
		c-4.573,0-8.285-3.712-8.285-8.285c0-4.573,3.712-8.285,8.285-8.285H132.005z"/>
	<path style="fill:#535757;" d="M136.976,374.473c3.237,3.237,3.237,8.484,0,11.72l-12.505,12.493
		c-1.613,1.624-3.734,2.43-5.855,2.43c-2.121,0-4.242-0.806-5.855-2.43c-3.237-3.237-3.237-8.484,0-11.72l12.493-12.493
		C128.493,371.236,133.74,371.236,136.976,374.473z"/>
	<path style="fill:#535757;" d="M136.236,124.526c3.237,3.237,3.237,8.473,0,11.709c-1.613,1.624-3.734,2.43-5.855,2.43
		c-2.121,0-4.242-0.806-5.855-2.43l-12.505-12.493c-3.237-3.237-3.237-8.484,0-11.72c3.237-3.237,8.484-3.237,11.719,0
		L136.236,124.526z"/>
	<path style="fill:#535757;" d="M99.485,411.964c3.238,3.237,3.238,8.484,0,11.72l-12.493,12.493
		c-1.624,1.624-3.745,2.43-5.866,2.43c-2.122,0-4.243-0.806-5.856-2.43c-3.237-3.237-3.237-8.473,0-11.709l12.495-12.504
		C91.001,408.728,96.248,408.728,99.485,411.964z"/>
	<path style="fill:#535757;" d="M98.745,87.035c3.238,3.226,3.238,8.473,0,11.709c-1.613,1.624-3.734,2.43-5.855,2.43
		c-2.121,0-4.242-0.806-5.855-2.43L74.531,86.251c-3.237-3.237-3.237-8.484,0-11.72c3.238-3.237,8.485-3.237,11.72,0L98.745,87.035z
		"/>
	<path style="fill:#535757;" d="M78.983,17.675c4.573,0,8.285,3.712,8.285,8.285s-3.712,8.285-8.285,8.285H51.919v5.954l9.334,9.334
		c3.237,3.237,3.237,8.484,0,11.72c-1.613,1.624-3.734,2.43-5.855,2.43c-2.121,0-4.243-0.806-5.867-2.43l-9.334-9.334h-5.954v27.064
		c0,4.573-3.712,8.285-8.285,8.285s-8.285-3.712-8.285-8.285V51.919H8.285C3.712,51.919,0,48.207,0,43.634V8.285
		c0-4.573,3.712-8.285,8.285-8.285h35.348c4.573,0,8.285,3.712,8.285,8.285v9.389H78.983z M35.35,35.349V16.57H16.571v18.779H35.35z
		"/>
	<path style="fill:#535757;" d="M78.983,477.204c4.573,0,8.285,3.712,8.285,8.285c0,4.573-3.712,8.285-8.285,8.285H51.919v9.389
		c0,4.573-3.712,8.285-8.285,8.285H8.286c-4.573,0-8.285-3.712-8.285-8.285v-35.348c0-4.573,3.712-8.285,8.285-8.285h9.389v-27.064
		c0-4.573,3.712-8.285,8.285-8.285s8.285,3.712,8.285,8.285v27.064h5.954l10.074-10.074c3.238-3.237,8.485-3.226,11.72,0
		c3.237,3.237,3.237,8.484,0,11.72L51.919,471.25v5.954H78.983z M35.35,494.879V476.1H16.571v18.779H35.35z"/>
	<path style="fill:#535757;" d="M34.245,379.444v17.674c0,4.573-3.712,8.285-8.285,8.285s-8.285-3.712-8.285-8.285v-17.674
		c0-4.573,3.712-8.285,8.285-8.285S34.245,374.871,34.245,379.444z"/>
	<path style="fill:#535757;" d="M34.245,326.421v17.674c0,4.573-3.712,8.285-8.285,8.285s-8.285-3.712-8.285-8.285v-17.674
		c0-4.573,3.712-8.285,8.285-8.285S34.245,321.848,34.245,326.421z"/>
	<path style="fill:#535757;" d="M34.245,273.399v17.674c0,4.573-3.712,8.285-8.285,8.285s-8.285-3.712-8.285-8.285v-17.674
		c0-4.573,3.712-8.285,8.285-8.285S34.245,268.825,34.245,273.399z"/>
	<path style="fill:#535757;" d="M34.245,220.376v17.674c0,4.573-3.712,8.285-8.285,8.285s-8.285-3.712-8.285-8.285v-17.674
		c0-4.573,3.712-8.285,8.285-8.285S34.245,215.803,34.245,220.376z"/>
	<path style="fill:#535757;" d="M34.245,167.353v17.674c0,4.573-3.712,8.285-8.285,8.285s-8.285-3.712-8.285-8.285v-17.674
		c0-4.573,3.712-8.285,8.285-8.285S34.245,162.78,34.245,167.353z"/>
	<path style="fill:#535757;" d="M34.245,114.331v17.674c0,4.573-3.712,8.285-8.285,8.285s-8.285-3.712-8.285-8.285v-17.674
		c0-4.573,3.712-8.285,8.285-8.285S34.245,109.757,34.245,114.331z"/>
</g>
</svg>