<svg xmlns="http://www.w3.org/2000/svg" viewBox="0 0 384 512"><!--!Font Awesome Free 6.5.2 by @fontawesome - https://fontawesome.com License - https://fontawesome.com/license/free Copyright 2024 Fonticons, Inc.-->

<defs>
    <linearGradient id="grad1" x1="0%" y1="0%" x2="100%" y2="100%">
      <stop offset="0%" style="stop-color:#AB0AE0; stop-opacity:1" />
      <stop offset="25%" style="stop-color:#8500b5; stop-opacity:1" />
      <stop offset="50%" style="stop-color:#8d00d4; stop-opacity:1" />
      <stop offset="75%" style="stop-color:#6D0A90; stop-opacity:1" />
      <stop offset="100%" style="stop-color:#AB0AE0; stop-opacity:1" />
    </linearGradient>
  </defs>
  <path fill="url(#grad1)" d="M16 64C16 28.7 44.7 0 80 0H304c35.3 0 64 28.7 64 64V448c0 35.3-28.7 64-64 64H80c-35.3 0-64-28.7-64-64V64zM144 448c0 8.8 7.2 16 16 16h64c8.8 0 16-7.2 16-16s-7.2-16-16-16H160c-8.8 0-16 7.2-16 16zM304 64H80V384H304V64z"/></svg>