<?xml version="1.0" encoding="UTF-8"?>
<svg id="Layer_1" data-name="Layer 1" xmlns="http://www.w3.org/2000/svg" viewBox="0 0 1920 1080">
  <defs>
    <style>
      .cls-1 {
        fill: none;
      }

      .cls-1, .cls-2, .cls-3, .cls-4 {
        stroke: #000;
        stroke-miterlimit: 10;
      }

      .cls-3 {
        fill: #ddd;
      }

      .cls-5, .cls-6 {
        stroke-width: 0px;
      }

      .cls-6 {
        fill: #fff;
      }

      .cls-4 {
        fill: #686868;
      }
    </style>
  </defs>
  <g>
    <polygon class="cls-3" points="861.4 952.12 738.99 806.87 734.67 821.96 726.68 823.65 716.16 813.35 711.51 797.22 712.94 784.72 1181.55 663.93 1331.62 805.85 1330.53 815.33 883.08 954.6 861.4 952.12"/>
    <polygon class="cls-2" points="1007.44 890.88 987.6 866.52 1138.97 820.18 1158.57 841.91 1007.44 890.88"/>
    <polygon class="cls-2" points="965.77 903 945.18 878.55 981.43 868.41 1002.01 892.85 965.77 903"/>
    <polygon class="cls-2" points="930.74 911.57 913.69 891.33 943.7 882.93 960.75 903.17 930.74 911.57"/>
    <polygon class="cls-2" points="894.58 922.5 877.53 902.25 907.54 893.85 924.59 914.1 894.58 922.5"/>
    <polygon class="cls-2" points="858.19 933.92 841.14 913.68 871.15 905.28 888.2 925.52 858.19 933.92"/>
    <polygon class="cls-2" points="813.73 880.39 799.26 859.25 853.06 843.32 870.96 864.61 813.73 880.39"/>
    <path class="cls-2" d="M792.69,855.13c2.03-1.6,44.76-13.6,44.76-13.6l-16.96-20.13-44.12,13.41,16.32,20.33Z"/>
    <polygon class="cls-2" points="819.82 886.29 835.46 906.27 873.13 894.99 857.25 873.68 819.82 886.29"/>
    <polygon class="cls-2" points="1165.13 841.37 1146 820.98 1176.5 810.18 1194.82 831.77 1165.13 841.37"/>
    <polygon class="cls-2" points="1199.37 831.33 1183.81 810.4 1210.35 799.16 1225.17 821.32 1199.37 831.33"/>
    <polygon class="cls-2" points="1231.71 821.61 1224.54 810.49 1244.69 803.09 1254.72 814.24 1231.71 821.61"/>
    <polygon class="cls-2" points="1261.7 815.04 1239.57 792.72 1262.69 783.67 1283.58 805.55 1261.7 815.04"/>
    <polygon class="cls-2" points="1291.42 805.15 1282.33 793.71 1302.6 786.94 1310.85 797.63 1291.42 805.15"/>
    <path class="cls-2" d="M1283.4,773.05c-1.28-.15-54.71,17.55-54.71,17.55l-16.56-19.21,54.67-17.89,16.6,19.56Z"/>
    <polygon class="cls-2" points="880.43 891.66 863.38 871.42 893.39 863.02 910.44 883.26 880.43 891.66"/>
    <polygon class="cls-2" points="915.19 880.05 899.59 861.54 927.05 853.85 942.64 872.37 915.19 880.05"/>
    <polygon class="cls-2" points="947.65 869.74 932.06 851.23 959.51 843.55 975.1 862.06 947.65 869.74"/>
    <polygon class="cls-2" points="981.18 860.59 965.59 842.07 993.04 834.39 1008.63 852.91 981.18 860.59"/>
    <polygon class="cls-2" points="1012.15 851.14 996.56 832.63 1024.01 824.94 1039.6 843.46 1012.15 851.14"/>
    <polygon class="cls-2" points="1044.4 841.84 1028.81 823.33 1056.26 815.64 1071.85 834.16 1044.4 841.84"/>
    <polygon class="cls-2" points="1076.05 833.07 1060.45 814.55 1087.9 806.87 1103.5 825.39 1076.05 833.07"/>
    <polygon class="cls-2" points="1107.01 823.62 1091.42 805.11 1118.87 797.42 1134.46 815.94 1107.01 823.62"/>
    <polygon class="cls-2" points="1137.98 814.17 1122.39 795.66 1149.84 787.98 1165.43 806.49 1137.98 814.17"/>
    <polygon class="cls-2" points="1168.53 803.38 1154.58 786.82 1179.13 779.95 1193.08 796.51 1168.53 803.38"/>
    <polygon class="cls-2" points="1198.29 795.09 1185.29 779.65 1208.18 773.24 1221.19 788.69 1198.29 795.09"/>
    <polygon class="cls-2" points="876 859.39 862.05 842.83 886.6 835.96 900.55 852.51 876 859.39"/>
    <polygon class="cls-2" points="908.25 850.08 894.3 833.52 918.85 826.65 932.8 843.21 908.25 850.08"/>
    <polygon class="cls-2" points="941.78 840.93 927.83 824.37 952.38 817.5 966.33 834.06 941.78 840.93"/>
    <polygon class="cls-2" points="975.31 831.78 961.37 815.22 985.92 808.35 999.86 824.9 975.31 831.78"/>
    <polygon class="cls-2" points="1006.28 822.33 992.33 805.77 1016.88 798.9 1030.83 815.46 1006.28 822.33"/>
    <polygon class="cls-2" points="1038.53 813.03 1024.58 796.47 1049.13 789.6 1063.08 806.16 1038.53 813.03"/>
    <polygon class="cls-2" points="1069.35 804.86 1055.4 788.3 1079.95 781.43 1093.9 797.99 1069.35 804.86"/>
    <polygon class="cls-2" points="1100.17 796.69 1086.22 780.14 1110.77 773.26 1124.72 789.82 1100.17 796.69"/>
    <polygon class="cls-2" points="1129.71 788.38 1115.76 771.82 1140.31 764.95 1154.26 781.51 1129.71 788.38"/>
    <polygon class="cls-2" points="1159.24 780.07 1145.3 763.51 1169.85 756.64 1183.79 773.2 1159.24 780.07"/>
    <polygon class="cls-2" points="1188.78 771.76 1174.84 755.2 1199.39 748.33 1213.33 764.89 1188.78 771.76"/>
    <polygon class="cls-2" points="1217.04 763.3 1203.09 746.74 1227.64 739.87 1241.59 756.43 1217.04 763.3"/>
    <polygon class="cls-2" points="844.56 838.89 830.61 822.33 855.16 815.46 869.11 832.02 844.56 838.89"/>
    <polygon class="cls-2" points="878.24 828.46 864.29 811.9 888.84 805.03 902.79 821.59 878.24 828.46"/>
    <polygon class="cls-2" points="911.62 820.59 897.68 804.03 922.23 797.16 936.18 813.71 911.62 820.59"/>
    <polygon class="cls-2" points="945.3 810.15 931.36 793.59 955.91 786.72 969.85 803.28 945.3 810.15"/>
    <polygon class="cls-2" points="976.27 800.7 962.32 784.14 986.87 777.27 1000.82 793.83 976.27 800.7"/>
    <polygon class="cls-2" points="1008.37 792.68 994.43 776.12 1018.98 769.25 1032.92 785.81 1008.37 792.68"/>
    <polygon class="cls-2" points="1039.19 784.52 1025.25 767.96 1049.8 761.09 1063.74 777.65 1039.19 784.52"/>
    <polygon class="cls-2" points="1068.73 776.2 1054.79 759.64 1079.34 752.77 1093.28 769.33 1068.73 776.2"/>
    <polygon class="cls-2" points="1098.27 767.89 1084.32 751.33 1108.87 744.46 1122.82 761.02 1098.27 767.89"/>
    <polygon class="cls-2" points="1129.09 759.73 1115.14 743.17 1139.69 736.3 1153.64 752.86 1129.09 759.73"/>
    <polygon class="cls-2" points="1159.91 751.56 1145.96 735 1170.51 728.13 1184.46 744.69 1159.91 751.56"/>
    <polygon class="cls-2" points="1188.5 743.14 1175.4 727.59 1198.45 721.14 1211.55 736.69 1188.5 743.14"/>
    <polygon class="cls-2" points="807.7 820.38 793.75 803.82 818.3 796.95 832.25 813.51 807.7 820.38"/>
    <polygon class="cls-2" points="841.38 809.94 827.43 793.38 851.98 786.51 865.93 803.07 841.38 809.94"/>
    <polygon class="cls-2" points="874.91 800.79 860.96 784.23 885.51 777.36 899.46 793.92 874.91 800.79"/>
    <polygon class="cls-2" points="908.3 792.92 894.35 776.36 918.9 769.49 932.85 786.05 908.3 792.92"/>
    <polygon class="cls-2" points="939.26 783.47 925.32 766.91 949.87 760.04 963.81 776.6 939.26 783.47"/>
    <polygon class="cls-2" points="970.08 775.3 956.14 758.74 980.69 751.87 994.63 768.43 970.08 775.3"/>
    <polygon class="cls-2" points="1002.19 767.29 988.24 750.73 1012.79 743.86 1026.74 760.41 1002.19 767.29"/>
    <polygon class="cls-2" points="1033.01 759.12 1019.06 742.56 1043.61 735.69 1057.56 752.25 1033.01 759.12"/>
    <polygon class="cls-2" points="1065.26 749.82 1051.31 733.26 1075.86 726.39 1089.81 742.95 1065.26 749.82"/>
    <polygon class="cls-2" points="1094.79 741.51 1080.85 724.95 1105.4 718.08 1119.34 734.64 1094.79 741.51"/>
    <polygon class="cls-2" points="1155 726.31 1141.06 709.75 1165.61 702.88 1179.56 719.44 1155 726.31"/>
    <polygon class="cls-2" points="1125.61 733.34 1111.67 716.78 1136.22 709.91 1150.16 726.47 1125.61 733.34"/>
    <polygon class="cls-2" points="787.35 797.26 815.2 789.43 805.62 775.34 778.68 783.16 787.35 797.26"/>
    <polygon class="cls-2" points="822.75 786.7 850.6 778.87 841.02 764.78 814.08 772.6 822.75 786.7"/>
    <polygon class="cls-2" points="857.71 776.41 885.56 768.58 875.98 754.49 849.04 762.31 857.71 776.41"/>
    <polygon class="cls-2" points="889.96 767.11 917.81 759.28 908.23 745.19 881.29 753.01 889.96 767.11"/>
    <polygon class="cls-2" points="923.34 759.24 951.2 751.41 941.62 737.32 914.68 745.14 923.34 759.24"/>
    <polygon class="cls-2" points="956.23 750.01 984.09 742.18 974.51 728.09 947.57 735.91 956.23 750.01"/>
    <polygon class="cls-2" points="989.62 742.14 1017.48 734.31 1007.89 720.22 980.95 728.04 989.62 742.14"/>
    <polygon class="cls-2" points="1023.15 732.99 1051.01 725.15 1041.43 711.06 1014.49 718.89 1023.15 732.99"/>
    <polygon class="cls-2" points="1055.4 723.69 1083.26 715.85 1073.68 701.76 1046.74 709.58 1055.4 723.69"/>
    <polygon class="cls-2" points="1090.22 714.68 1118.07 706.84 1108.49 692.75 1081.55 700.58 1090.22 714.68"/>
    <polygon class="cls-2" points="1122.47 705.38 1150.32 697.54 1140.74 683.45 1113.8 691.28 1122.47 705.38"/>
    <polygon class="cls-2" points="1154.72 696.08 1182.57 688.24 1172.99 674.15 1146.05 681.97 1154.72 696.08"/>
    <polygon class="cls-2" points="752.5 804.78 780.35 796.94 770.77 782.85 743.83 790.68 752.5 804.78"/>
    <polygon class="cls-2" points="773.69 828.31 759.75 811.75 784.3 804.88 798.24 821.44 773.69 828.31"/>
    <polygon class="cls-2" points="1260.18 750.09 1249.77 754.72 1228.31 732.15 1216.94 733.4 1204.15 718.63 1222.11 711.46 1260.18 750.09"/>
    <polygon class="cls-2" points="1215.8 705.16 1185.96 715.92 1169.79 699.89 1198.4 689.11 1215.8 705.16"/>
    <polygon class="cls-2" points="716.17 788.48 735.77 804.39 731.41 816.39 727.26 818.52 719.02 811.08 715.08 798.08 716.17 788.48"/>
    <polyline class="cls-1" points="737.27 812.87 859.82 954.54 882.9 957.18 1328.87 818.53 1330.3 817.4 1330.59 814.83"/>
    <polygon class="cls-2" points="1330.59 814.83 1330.3 817.4 1328.87 818.53 882.9 957.18 859.82 954.54 737.27 812.87 738.99 806.87 861.4 952.12 883.08 954.6 1330.59 814.83"/>
    <polygon class="cls-4" points="1008.78 890.78 988.94 866.42 1140.31 820.08 1159.91 841.81 1008.78 890.78"/>
    <polygon class="cls-4" points="967.11 902.9 946.52 878.45 982.76 868.31 1003.35 892.76 967.11 902.9"/>
    <polygon class="cls-4" points="932.08 911.48 915.03 891.23 945.04 882.83 962.09 903.08 932.08 911.48"/>
    <polygon class="cls-4" points="895.92 922.4 878.87 902.15 908.88 893.76 925.93 914 895.92 922.4"/>
    <polygon class="cls-4" points="859.53 933.82 842.48 913.58 872.49 905.18 889.54 925.43 859.53 933.82"/>
    <polygon class="cls-4" points="815.07 880.29 800.6 859.15 854.4 843.22 872.3 864.51 815.07 880.29"/>
    <path class="cls-4" d="M794.03,855.03c2.03-1.6,44.76-13.6,44.76-13.6l-16.96-20.13-44.12,13.41,16.32,20.33Z"/>
    <polygon class="cls-4" points="821.16 886.19 836.8 906.17 874.47 894.89 858.59 873.58 821.16 886.19"/>
    <polygon class="cls-4" points="1166.47 841.27 1147.34 820.88 1177.84 810.08 1196.16 831.67 1166.47 841.27"/>
    <polygon class="cls-4" points="1200.71 831.23 1185.15 810.3 1211.69 799.06 1226.51 821.23 1200.71 831.23"/>
    <polygon class="cls-4" points="1233.05 821.51 1225.88 810.39 1246.03 802.99 1256.06 814.14 1233.05 821.51"/>
    <polygon class="cls-4" points="1263.04 814.94 1240.91 792.62 1264.03 783.57 1284.92 805.45 1263.04 814.94"/>
    <polygon class="cls-4" points="1292.76 805.05 1283.67 793.62 1303.94 786.84 1312.19 797.53 1292.76 805.05"/>
    <path class="cls-4" d="M1284.74,772.95c-1.28-.15-54.71,17.55-54.71,17.55l-16.56-19.21,54.67-17.89,16.6,19.56Z"/>
    <polygon class="cls-4" points="881.77 891.56 864.72 871.32 894.73 862.92 911.78 883.17 881.77 891.56"/>
    <polygon class="cls-4" points="916.53 879.95 900.93 861.44 928.39 853.75 943.98 872.27 916.53 879.95"/>
    <polygon class="cls-4" points="948.99 869.65 933.4 851.13 960.85 843.45 976.44 861.96 948.99 869.65"/>
    <polygon class="cls-4" points="982.52 860.49 966.93 841.98 994.38 834.29 1009.97 852.81 982.52 860.49"/>
    <polygon class="cls-4" points="1013.49 851.04 997.9 832.53 1025.35 824.85 1040.94 843.36 1013.49 851.04"/>
    <polygon class="cls-4" points="1045.74 841.74 1030.15 823.23 1057.6 815.54 1073.19 834.06 1045.74 841.74"/>
    <polygon class="cls-4" points="1077.39 832.97 1061.79 814.46 1089.24 806.77 1104.84 825.29 1077.39 832.97"/>
    <polygon class="cls-4" points="1108.35 823.52 1092.76 805.01 1120.21 797.33 1135.8 815.84 1108.35 823.52"/>
    <polygon class="cls-4" points="1139.32 814.08 1123.73 795.56 1151.18 787.88 1166.77 806.39 1139.32 814.08"/>
    <polygon class="cls-4" points="1169.87 803.28 1155.92 786.72 1180.47 779.85 1194.42 796.41 1169.87 803.28"/>
    <polygon class="cls-4" points="1199.63 794.99 1186.63 779.55 1209.52 773.14 1222.53 788.59 1199.63 794.99"/>
    <polygon class="cls-4" points="877.34 859.29 863.39 842.73 887.94 835.86 901.89 852.42 877.34 859.29"/>
    <polygon class="cls-4" points="909.59 849.99 895.64 833.43 920.19 826.56 934.14 843.11 909.59 849.99"/>
    <polygon class="cls-4" points="943.12 840.83 929.17 824.27 953.72 817.4 967.67 833.96 943.12 840.83"/>
    <polygon class="cls-4" points="976.65 831.68 962.71 815.12 987.26 808.25 1001.2 824.81 976.65 831.68"/>
    <polygon class="cls-4" points="1007.62 822.23 993.67 805.67 1018.22 798.8 1032.17 815.36 1007.62 822.23"/>
    <polygon class="cls-4" points="1039.87 812.93 1025.92 796.37 1050.47 789.5 1064.42 806.06 1039.87 812.93"/>
    <polygon class="cls-4" points="1070.69 804.76 1056.74 788.2 1081.29 781.33 1095.24 797.89 1070.69 804.76"/>
    <polygon class="cls-4" points="1101.51 796.6 1087.56 780.04 1112.11 773.17 1126.06 789.73 1101.51 796.6"/>
    <polygon class="cls-4" points="1131.05 788.28 1117.1 771.72 1141.65 764.85 1155.6 781.41 1131.05 788.28"/>
    <polygon class="cls-4" points="1160.58 779.97 1146.64 763.41 1171.19 756.54 1185.13 773.1 1160.58 779.97"/>
    <polygon class="cls-4" points="1190.12 771.66 1176.18 755.1 1200.73 748.23 1214.67 764.79 1190.12 771.66"/>
    <polygon class="cls-4" points="1218.38 763.2 1204.43 746.64 1228.98 739.77 1242.93 756.33 1218.38 763.2"/>
    <polygon class="cls-4" points="845.9 838.8 831.95 822.24 856.5 815.37 870.45 831.92 845.9 838.8"/>
    <polygon class="cls-4" points="879.58 828.36 865.63 811.8 890.18 804.93 904.13 821.49 879.58 828.36"/>
    <polygon class="cls-4" points="912.96 820.49 899.02 803.93 923.57 797.06 937.52 813.62 912.96 820.49"/>
    <polygon class="cls-4" points="946.64 810.05 932.7 793.49 957.25 786.62 971.19 803.18 946.64 810.05"/>
    <polygon class="cls-4" points="977.61 800.6 963.66 784.04 988.21 777.17 1002.16 793.73 977.61 800.6"/>
    <polygon class="cls-4" points="1009.71 792.58 995.77 776.02 1020.32 769.15 1034.26 785.71 1009.71 792.58"/>
    <polygon class="cls-4" points="1040.53 784.42 1026.59 767.86 1051.14 760.99 1065.08 777.55 1040.53 784.42"/>
    <polygon class="cls-4" points="1070.07 776.11 1056.13 759.55 1080.68 752.68 1094.62 769.23 1070.07 776.11"/>
    <polygon class="cls-4" points="1099.61 767.79 1085.66 751.23 1110.21 744.36 1124.16 760.92 1099.61 767.79"/>
    <polygon class="cls-4" points="1130.43 759.63 1116.48 743.07 1141.03 736.2 1154.98 752.76 1130.43 759.63"/>
    <polygon class="cls-4" points="1161.25 751.46 1147.3 734.9 1171.85 728.03 1185.8 744.59 1161.25 751.46"/>
    <polygon class="cls-4" points="1189.84 743.04 1176.74 727.49 1199.79 721.04 1212.89 736.59 1189.84 743.04"/>
    <polygon class="cls-4" points="809.04 820.28 795.09 803.72 819.64 796.85 833.59 813.41 809.04 820.28"/>
    <polygon class="cls-4" points="842.72 809.85 828.77 793.29 853.32 786.42 867.27 802.97 842.72 809.85"/>
    <polygon class="cls-4" points="876.25 800.69 862.3 784.13 886.85 777.26 900.8 793.82 876.25 800.69"/>
    <polygon class="cls-4" points="909.64 792.82 895.69 776.26 920.24 769.39 934.19 785.95 909.64 792.82"/>
    <polygon class="cls-4" points="940.6 783.37 926.66 766.81 951.21 759.94 965.15 776.5 940.6 783.37"/>
    <polygon class="cls-4" points="971.42 775.21 957.48 758.65 982.03 751.78 995.97 768.33 971.42 775.21"/>
    <polygon class="cls-4" points="1003.53 767.19 989.58 750.63 1014.13 743.76 1028.08 760.32 1003.53 767.19"/>
    <polygon class="cls-4" points="1034.35 759.02 1020.4 742.46 1044.95 735.59 1058.9 752.15 1034.35 759.02"/>
    <polygon class="cls-4" points="1066.6 749.72 1052.65 733.16 1077.2 726.29 1091.15 742.85 1066.6 749.72"/>
    <polygon class="cls-4" points="1096.13 741.41 1082.19 724.85 1106.74 717.98 1120.68 734.54 1096.13 741.41"/>
    <polygon class="cls-4" points="1156.34 726.21 1142.4 709.65 1166.95 702.78 1180.9 719.34 1156.34 726.21"/>
    <polygon class="cls-4" points="1126.95 733.24 1113.01 716.68 1137.56 709.81 1151.5 726.37 1126.95 733.24"/>
    <polygon class="cls-4" points="788.69 797.16 816.54 789.33 806.96 775.24 780.02 783.06 788.69 797.16"/>
    <polygon class="cls-4" points="824.09 786.61 851.94 778.77 842.36 764.68 815.42 772.5 824.09 786.61"/>
    <polygon class="cls-4" points="859.05 776.32 886.9 768.48 877.32 754.39 850.38 762.21 859.05 776.32"/>
    <polygon class="cls-4" points="891.3 767.01 919.15 759.18 909.57 745.09 882.63 752.91 891.3 767.01"/>
    <polygon class="cls-4" points="924.68 759.14 952.54 751.31 942.96 737.22 916.02 745.04 924.68 759.14"/>
    <polygon class="cls-4" points="957.57 749.91 985.43 742.08 975.85 727.99 948.91 735.81 957.57 749.91"/>
    <polygon class="cls-4" points="990.96 742.04 1018.82 734.21 1009.23 720.12 982.29 727.94 990.96 742.04"/>
    <polygon class="cls-4" points="1024.49 732.89 1052.35 725.06 1042.77 710.96 1015.83 718.79 1024.49 732.89"/>
    <polygon class="cls-4" points="1056.74 723.59 1084.6 715.75 1075.02 701.66 1048.08 709.49 1056.74 723.59"/>
    <polygon class="cls-4" points="1091.56 714.58 1119.41 706.75 1109.83 692.66 1082.89 700.48 1091.56 714.58"/>
    <polygon class="cls-4" points="1123.81 705.28 1151.66 697.45 1142.08 683.35 1115.14 691.18 1123.81 705.28"/>
    <polygon class="cls-4" points="1156.06 695.98 1183.91 688.14 1174.33 674.05 1147.39 681.88 1156.06 695.98"/>
    <polygon class="cls-4" points="753.84 804.68 781.69 796.84 772.11 782.75 745.17 790.58 753.84 804.68"/>
    <polygon class="cls-4" points="775.03 828.21 761.09 811.65 785.64 804.78 799.58 821.34 775.03 828.21"/>
    <polygon class="cls-4" points="1261.52 749.99 1251.11 754.63 1229.65 732.05 1218.28 733.3 1205.49 718.53 1223.45 711.36 1261.52 749.99"/>
    <polygon class="cls-4" points="1217.14 705.06 1187.3 715.82 1171.13 699.79 1199.74 689.02 1217.14 705.06"/>
  </g>
  <g>
    <polyline class="cls-1" points="854.71 554.86 1167.56 489.71 665.88 594.53 626.83 581.58 609.37 563.9"/>
    <path class="cls-4" d="M751.47,540.38l-10.59,1.84,112.87,124.82,26.95,11.77,35.22,3.75,235.22-62.52,12.43-16-1.35-14.75s-.06-.05-.07,0l-3.42,15.24-8.12,6.56-235.22,62.52-38-5.53-12.58-7.28-113.34-120.41Z"/>
    <polygon class="cls-4" points="570.97 148.41 609.44 564.14 627.67 581.73 662.59 592.42 642.2 571.11 635.39 556.48 592.65 159.51 570.97 148.41"/>
    <polygon class="cls-3" points="751.47 540.38 1004.99 487.22 1162.08 588.95 1158.74 604.52 1150.62 611.07 915.39 673.6 877.39 668.07 864.81 660.79 751.47 540.38"/>
    <polygon class="cls-3" points="592.65 159.51 633.86 556.84 641.07 571.67 660.08 591.27 665.11 593.57 1167.56 489.71 1174.44 474.62 1176.66 453.76 1124.83 98.38 592.65 159.51"/>
    <path class="cls-2" d="M725.06,534.2c-21,3.73-40.76-11.1-43.07-32.3l-33.74-277.07c-3.01-24.7,14.89-47.04,39.65-49.48l369.9-41.92c23.59-2.33,28.84,20.42,32.25,43.87l33.75,244.46c2.37,16.32-4.04,38.9-20.27,41.79l-378.47,70.64Z"/>
    <path class="cls-4" d="M571.41,146.27l526.99-56.63,25.62,8.48c.19.06.16.33-.92-.24l-530.26,59.89-21.67-10.3c-.54-.3-.37-1.13.24-1.19Z"/>
    <path class="cls-6" d="M743.37,514.12c-18.85,3.34-36.59-9.96-38.65-28.99l-30.28-248.68c-2.7-22.17,13.37-42.22,35.59-44.41l332-37.62c21.17-2.09,25.89,18.32,28.95,39.38l30.29,219.41c2.13,14.64-3.63,34.91-18.2,37.51l-339.69,63.41Z"/>
    <path class="cls-5" d="M990.62,180.11c2.97-6.06,16.36-4.81,25.51-3.96,2.73.25,14.65,1.49,28.6,8.26,10.33,5.01,12.3,8.45,13.09,10.19,3.11,6.86.59,15.64-1.95,16-2.85.41-3.37-10.11-12.4-17.37-6.15-4.94-13.03-5.78-18.13-6.41-18.01-2.22-28.96,6.49-33.75,1.05-1.87-2.12-2.05-5.55-.97-7.76Z"/>
  </g>
</svg>